<svg width="58" height="58" viewBox="0 0 58 58" fill="none" xmlns="http://www.w3.org/2000/svg">
<g clip-path="url(#clip0_4_330)">
<path d="M18.3472 38.8794V23.1329H14.707V19.0977H23.3702V38.8794H18.3472Z" fill="white" fill-opacity="0.4"/>
<path d="M42.2483 24.2045C42.2483 25.9258 41.3171 27.4496 39.7651 28.2963C41.9378 29.1991 43.2924 31.0899 43.2924 33.2909C43.2924 36.8465 40.1318 39.1041 35.1936 39.1041C30.2552 39.1041 27.0947 36.8747 27.0947 33.3758C27.0947 31.1181 28.5621 29.1991 30.8478 28.2963C29.1829 27.3649 28.1106 25.7849 28.1106 24.0635C28.1106 20.9027 30.8762 18.8994 35.1654 18.8994C39.511 18.8994 42.2483 20.9594 42.2483 24.2045ZM31.8354 32.8679C31.8354 34.5329 33.0208 35.4641 35.1936 35.4641C37.3664 35.4641 38.5798 34.5613 38.5798 32.8679C38.5798 31.2314 37.3664 30.2998 35.1936 30.2998C33.0206 30.2998 31.8354 31.2312 31.8354 32.8679ZM32.3435 24.4866C32.3435 25.8979 33.3594 26.6877 35.1936 26.6877C37.0278 26.6877 38.0436 25.8977 38.0436 24.4866C38.0436 23.0196 37.0278 22.2011 35.1936 22.2011C33.3592 22.2011 32.3435 23.0196 32.3435 24.4866Z" fill="white" fill-opacity="0.4"/>
<path d="M51.6507 21.3281C52.4858 23.7928 52.9094 26.3708 52.9094 29C52.9094 42.1836 42.1836 52.9094 28.9998 52.9094C15.816 52.9094 5.09006 42.1836 5.09006 29C5.09006 15.816 15.8159 5.09059 28.9996 5.09059C31.6292 5.09059 34.2072 5.51387 36.6715 6.34931V1.02856C34.1823 0.346204 31.6114 0 28.9998 0C13.0094 0 0 13.0094 0 29C0 44.9906 13.0094 58 28.9998 58C44.9903 58 57.9995 44.9906 57.9995 29C57.9995 26.3886 57.6534 23.8175 56.9711 21.3281H51.6507Z" fill="white" fill-opacity="0.4"/>
<path d="M50.2035 7.77935V2.21875H46.205V7.77935H40.6777V11.7775H46.205V17.338H50.2035V11.7775H55.7638V7.77935H50.2035Z" fill="white" fill-opacity="0.4"/>
</g>
<defs>
<clipPath id="clip0_4_330">
<rect width="57.9995" height="58" fill="white"/>
</clipPath>
</defs>
</svg>
